<?xml version="1.0" encoding="utf-8"?>
<!-- Generator: Adobe Illustrator 19.0.0, SVG Export Plug-In . SVG Version: 6.00 Build 0)  -->
<!DOCTYPE svg PUBLIC "-//W3C//DTD SVG 1.1//EN" "http://www.w3.org/Graphics/SVG/1.1/DTD/svg11.dtd">
<svg version="1.1" id="Layer_1" xmlns="http://www.w3.org/2000/svg" xmlns:xlink="http://www.w3.org/1999/xlink" x="0px" y="0px"
	 viewBox="0 0 264.7 86.5" enable-background="new 0 0 264.7 86.5" xml:space="preserve">
<path id="XMLID_49_" fill="#F96701" d="M81.4,48.6c-0.2,0.9-0.4,1.8-0.7,2.8c-2.7,9.4-8.6,16.3-16.8,21.5c-0.1,0-0.1,0.1-0.2,0.1
	c-2.5,1.2-4.2,3-5.5,5.7c-2.8,5.8-9.2,8.2-14.3,7.6c-7-0.8-12.2-6.3-13.1-12.1c-0.1-0.5-0.5-1.1-0.9-1.5c-1.7-1.3-3.5-2.4-5.3-3.6
	c-0.4-0.3-0.8-0.7-1-1.2c-2.2-4.9-2.7-10-2.1-15.3c0.1-0.9,0.2-1.9,0.4-2.9c2.1,1.5,4.1,2.9,6,4.3c2.5,1.8,5.1,3.6,7.6,5.5
	c0.6,0.4,1,0.5,1.7,0c6-4,13.5-3.3,18.6,1.7c0.3,0.3,0.9,0.6,1.3,0.6c6.7-0.8,13-2.7,18.4-7c1.9-1.5,3.4-3.5,5.1-5.3
	c0.3-0.3,0.4-0.6,0.7-0.9C81.3,48.6,81.3,48.6,81.4,48.6z"/>
<path id="XMLID_48_" fill="#F96701" d="M15.8,63c-4.3-4.1-7.6-8.8-9.4-14.5c-1.5-4.8-2-9.7-1.9-14.6c0-0.8-0.2-1.4-0.7-2
	C0.2,27.7-1,22.9,0.9,17.6c1.9-5.4,5.8-8.6,11.4-9.8c2.4-0.5,4.9-0.3,7.2,0.6c0.8,0.3,1.5,0.2,2.3-0.2c1.9-1,3.9-1.8,5.8-2.8
	c0.8-0.4,1.6-0.5,2.6-0.3c5.2,1.2,9.7,3.5,13.5,7.2c0.3,0.3,0.5,0.6,0.9,1c-3.6,1.6-7,3.2-10.5,4.8c-1.3,0.6-2.7,1.2-4,1.8
	c-0.3,0.1-0.5,0.6-0.5,0.9c0.8,6.7-3.4,13.1-9.9,15.3c-0.8,0.3-1.4,0.7-1.7,1.5c-2.7,5.5-3.9,11.4-3.3,17.5
	C14.8,57.8,15.4,60.3,15.8,63z"/>
<path id="XMLID_36_" fill="#F96701" d="M66.3,50.9c0.2-2.6,0.4-5,0.6-7.4c0.2-2.6,0.4-5.2,0.6-7.8c0.1-0.6-0.2-0.9-0.7-1.2
	c-5.1-2.7-7.8-7-8.1-12.8c-0.1-1.3,0.4-2.7,0.5-4c0-0.5,0.1-1.1-0.2-1.4C53.9,8,46.6,3.1,36.9,1.5c1-0.2,1.8-0.4,2.6-0.6
	c0.8-0.2,1.7-0.3,2.5-0.4c9.7-1.6,18.5,1.2,26.6,6.2c0.7,0.4,1.3,0.5,2.1,0.4c9.7-1.7,18.2,5.9,17.4,15.7c-0.3,3.8-2,7.1-5,9.6
	c-0.7,0.6-1,1.2-1.1,2.1c-0.1,1.1-0.3,2.3-0.2,3.4c0.1,1.8-0.7,3-1.7,4.3c-3,3.7-6.9,5.9-11.2,7.8C68.1,50.3,67.3,50.6,66.3,50.9z"
	/>
<path id="XMLID_72_" fill="#FFFFFF" d="M222.6,28.2c0-6.8,0-13.5,0-20.3c0.7-0.2,1.2-0.4,1.7-0.4c4.6,0,15.4,0,15.4,0s0,42.3,0,62.4
	c0,2-0.2,2.4-2.3,3c-1.9,0.6-3.8,1.2-5.8,1.5c-6.3,1-12.7,1.6-19,0.1c-7.6-1.8-12.7-6.3-14.9-13.9c-1.6-5.5-1.7-11.1-0.5-16.7
	c1.4-6.6,4.8-11.8,11.4-14.3c4.1-1.6,8.3-2.4,12.7-1.4C221.5,28.2,221.9,28.2,222.6,28.2z M222.5,61.7c0-7,0-14,0-20.9
	c-3.5-1.1-6.7,0.2-7.9,3.3c-1.9,4.7-1.9,9.5,0,14.3C215.7,61.5,219.1,63,222.5,61.7z"/>
<path id="XMLID_42_" fill="#FFFFFF" d="M117.3,74.1h-16.4V7.7h16.5v20.9c0.8-0.1,1.4-0.1,1.9-0.3c4.2-1.1,8.4-1.1,12.6,0.1
	c4.9,1.4,8.3,4.4,9.5,9.5c0.5,2.1,0.7,4.2,0.7,6.3c0.1,9.3,0,18.6,0,27.9c0,0.7-0.1,1.4-0.2,2.3c-5.6,0-10.9,0.2-16.4-0.1
	c-0.1-1-0.1-1.7-0.1-2.3c0-8.2,0-16.5,0-24.7c0-0.6,0-1.2,0-1.9c-0.2-4.2-4-6.1-8-3.8V74.1z"/>
<path id="XMLID_35_" fill="#FFFFFF" d="M173.1,28.5c5.7,0,11.1,0,16.6,0c0,14.5,0,28.9,0,43.5c-2.9,1.4-6.1,2.2-9.3,2.5
	c-4.4,0.5-8.8,0.8-13.2,0.8c-4.3,0-8.6-0.9-12.2-3.3c-4.4-3-6.2-7.5-6.3-12.5c-0.2-9.8-0.1-30.9-0.1-30.9h16.6
	c0,0,0.2,19.4,0.2,28.2c0,4.1,3.6,6.3,7.7,4.3C173.1,50.3,173.1,39.5,173.1,28.5z"/>
<path id="XMLID_208_" fill="#FFFFFF" d="M248.1,7.7c5.6,0,11,0,16.6,0c0,22.2,0,44.3,0,66.7c-5.5,0-11,0.1-16.6-0.1V7.7z"/>
</svg>
